# xmcd
#
# Track frame offsets: 
#        150
#        11508
#        23608
#        34972
#        45905
#        62089
#        75473
#        87547
#        99617
#        111186
#        124831
#        136835
#        152219
#        162135
#
# Disc length: 2290 seconds
#
# Revision: 3
# Processed by: cddbd v1.5.2PL0 Copyright (c) Steve Scherf et al.
# Submitted via: ExactAudioCopy v0.95a5
#
DISCID=a708f00e
DTITLE=John Lee Hooker - Forever Gold
DYEAR=1999
DGENRE=
TTITLE0=Boom Boom
TTITLE1=Crawlin' Kingsnake
TTITLE2=Boogie Chillun!
TTITLE3=No Shoes
TTITLE4=When My First Wife Left Me
TTITLE5=Trouble Blues
TTITLE6=I'm A Stranger
TTITLE7=Frisco Blues
TTITLE8=Little Wheel
TTITLE9=The Road Is So Rough
TTITLE10=Everybody Rockin'
TTITLE11=Tupelo
TTITLE12=Dimples
TTITLE13=Onions
EXTD=
EXTT0=
EXTT1=
EXTT2=
EXTT3=
EXTT4=
EXTT5=
EXTT6=
EXTT7=
EXTT8=
EXTT9=
EXTT10=
EXTT11=
EXTT12=
EXTT13=
PLAYORDER=
